<?xml version="1.0" encoding="utf-8"?>
<!-- Generator: Adobe Illustrator 19.0.0, SVG Export Plug-In . SVG Version: 6.00 Build 0)  -->
<svg version="1.1" id="Layer_1" xmlns="http://www.w3.org/2000/svg" xmlns:xlink="http://www.w3.org/1999/xlink" x="0px" y="0px"
	 viewBox="0 0 297.6 65.2" style="enable-background:new 0 0 297.6 65.2;" xml:space="preserve">
<style type="text/css">
	.st0{fill:#48484A;}
	.st1{fill:#EB1C50;}
	.st2{opacity:0.43;clip-path:url(#XMLID_15_);}
	.st3{clip-path:url(#XMLID_16_);fill:#4AA748;}
	.st4{fill:#FFC328;}
	.st5{fill:#0779BE;}
	.st6{fill:#4AA948;}
	.st7{fill:none;}
	.st8{font-family:'Asap-Bold';}
	.st9{font-size:43.3369px;}
</style>
<path id="XMLID_13_" class="st0" d="M72.9,28.8h15.3V48c-4.2,1.4-8.7,2.1-13.7,2.1c-5.5,0-9.7-1.6-12.7-4.8c-3-3.2-4.5-7.7-4.5-13.6
	c0-5.7,1.6-10.2,4.9-13.4c3.3-3.2,7.9-4.8,13.8-4.8c2.2,0,4.3,0.2,6.3,0.6c2,0.4,3.7,1,5.2,1.6l-3,7.5c-2.6-1.3-5.4-1.9-8.4-1.9
	c-2.8,0-5,0.9-6.5,2.7C68,26,67.3,28.6,67.3,32c0,3.3,0.7,5.9,2.1,7.6c1.4,1.7,3.4,2.6,6,2.6c1.4,0,2.7-0.1,3.9-0.4v-5.6h-6.3V28.8z
	"/>
<path id="XMLID_12_" class="st0" d="M95.5,14.1h12.4c4.8,0,8.4,0.7,10.8,2.2c2.3,1.4,3.5,3.7,3.5,6.7c0,2-0.5,3.7-1.5,5.1
	c-1,1.4-2.4,2.3-4,2.7V31c2.2,0.6,3.8,1.6,4.8,2.9c1,1.4,1.5,3.1,1.5,5.3c0,3.2-1.2,5.8-3.6,7.6c-2.4,1.9-5.7,2.8-9.9,2.8H95.5V14.1
	z M105.1,27.7h2.9c1.4,0,2.4-0.3,3.2-0.9c0.8-0.6,1.1-1.4,1.1-2.5c0-2-1.5-3-4.5-3h-2.7V27.7z M105.1,34.8v7.5h3.4
	c3,0,4.5-1.3,4.5-3.8c0-1.2-0.4-2.1-1.2-2.7c-0.8-0.6-2-0.9-3.5-0.9H105.1z"/>
<path id="XMLID_11_" class="st0" d="M143.3,28.8h15.3V48c-4.2,1.4-8.7,2.1-13.7,2.1c-5.5,0-9.7-1.6-12.7-4.8
	c-3-3.2-4.5-7.7-4.5-13.6c0-5.7,1.6-10.2,4.9-13.4c3.3-3.2,7.9-4.8,13.8-4.8c2.2,0,4.3,0.2,6.3,0.6c2,0.4,3.7,1,5.2,1.6l-3,7.5
	c-2.6-1.3-5.4-1.9-8.4-1.9c-2.8,0-5,0.9-6.5,2.7c-1.5,1.8-2.3,4.4-2.3,7.8c0,3.3,0.7,5.9,2.1,7.6c1.4,1.7,3.4,2.6,6,2.6
	c1.4,0,2.7-0.1,3.9-0.4v-5.6h-6.3V28.8z"/>
<path id="XMLID_10_" class="st1" d="M23.1,43.6L23.1,43.6c1.5,0,2.9-0.6,4.1-1.7l5.2,5.1c5.1-5.1,5.1-13.3,0-18.4l-5.2,5.2
	c2.2,2.2,2.2,5.9,0,8.1C26,43.1,24.5,43.6,23.1,43.6"/>
<g id="XMLID_6_">
	<defs>
		<path id="XMLID_63_" d="M27.1,33.8c2.2,2.2,2.2,5.9,0,8.1c-1.1,1.1-2.6,1.7-4.1,1.7l0,7.3c3.3,0,6.7-1.3,9.2-3.8
			c5.1-5.1,5.1-13.3,0-18.4L27.1,33.8z"/>
	</defs>
	<clipPath id="XMLID_15_">
		<use xlink:href="#XMLID_63_"  style="overflow:visible;"/>
	</clipPath>
	<g id="XMLID_7_" class="st2">
		<g id="XMLID_8_">
			<defs>
				<rect id="XMLID_66_" x="26" y="27.9" width="24" height="11.6"/>
			</defs>
			<clipPath id="XMLID_16_">
				<use xlink:href="#XMLID_66_"  style="overflow:visible;"/>
			</clipPath>
			<path id="XMLID_9_" class="st3" d="M50,30.2l-6.9-2.3c-0.5,1.4-1.4,2.6-2.9,3.3c-2.8,1.4-6.3,0.3-7.7-2.5h0L26,32.1
				c3.8,7.5,10.4,9.3,17.5,5.7C46.7,36.1,49,33.3,50,30.2"/>
		</g>
	</g>
</g>
<g id="XMLID_1_">
	<path id="XMLID_5_" class="st4" d="M45.5,15.4c-5.1-5.1-13.3-5.1-18.4,0l5.2,5.2c2.2-2.2,5.9-2.2,8.1,0c1.1,1.1,1.7,2.6,1.7,4.1
		h7.3C49.4,21.3,48.1,17.9,45.5,15.4"/>
	<path id="XMLID_4_" class="st5" d="M13.9,47.1c5.1,5.1,13.3,5.1,18.4,0l-5.2-5.2c-2.2,2.2-5.9,2.2-8.1,0c-1.1-1.1-1.7-2.6-1.7-4.1
		H10C10,41.2,11.3,44.6,13.9,47.1"/>
	<path id="XMLID_3_" class="st6" d="M42.1,24.7c0,1.5-0.6,2.9-1.7,4c-2.3,2.2-5.9,2.2-8.1,0c-5.1-5.1-13.3-5.1-18.4-0.1
		c-2.5,2.5-3.8,5.9-3.9,9.2l7.3,0c0-1.5,0.6-2.9,1.7-4c2.2-2.2,5.9-2.2,8.1,0l0,0l0,0c5.1,5.1,13.3,5.1,18.4,0.1
		c2.6-2.5,3.8-5.9,3.9-9.2L42.1,24.7z"/>
	<path id="XMLID_2_" class="st1" d="M32.3,28.7L32.3,28.7c-2.2-2.2-2.2-5.9,0-8.1l-5.2-5.2c-2.6,2.6-3.9,6.1-3.8,9.5
		C26.6,24.9,29.8,26.2,32.3,28.7"/>
</g>
<rect x="174.9" y="14.7" class="st7" width="218.9" height="47.7"/>
<text transform="matrix(1 0 0 1 174.9405 47.3268)" class="st0 st8 st9">Tbilisi</text>
</svg>
