<?xml version="1.0" encoding="utf-8"?>
<!-- Generator: Adobe Illustrator 19.0.0, SVG Export Plug-In . SVG Version: 6.00 Build 0)  -->
<svg version="1.1" id="Layer_1" xmlns="http://www.w3.org/2000/svg" xmlns:xlink="http://www.w3.org/1999/xlink" x="0px" y="0px"
	 viewBox="-56 -61.8 185 188" style="enable-background:new -56 -61.8 185 188;" xml:space="preserve">
<style type="text/css">
	.st0{fill:#48484A;}
	.st1{fill:#EB1C50;}
	.st2{opacity:0.43;clip-path:url(#XMLID_38_);}
	.st3{clip-path:url(#XMLID_39_);fill:#4AA748;}
	.st4{fill:#FFC328;}
	.st5{fill:#0779BE;}
	.st6{fill:#4AA948;}
	.st7{fill:none;}
	.st8{font-family:'Asap-Bold';}
	.st9{font-size:24.1965px;}
	.st10{fill:#606060;}
	.st11{opacity:0.43;clip-path:url(#XMLID_40_);}
	.st12{clip-path:url(#XMLID_41_);fill:#818181;}
	.st13{fill:#C4C4C4;}
	.st14{fill:#5E5E5E;}
	.st15{fill:#828282;}
	.st16{fill:#E6E6E5;}
	.st17{opacity:0.43;clip-path:url(#XMLID_43_);}
	.st18{clip-path:url(#XMLID_44_);fill:#4AA748;}
</style>
<path id="XMLID_75_" class="st0" d="M-12.7-44.9h8.6v10.7C-6.4-33.4-9-33-11.8-33c-3.1,0-5.4-0.9-7.1-2.7c-1.7-1.8-2.5-4.3-2.5-7.6
	c0-3.2,0.9-5.7,2.7-7.5c1.8-1.8,4.4-2.7,7.7-2.7c1.2,0,2.4,0.1,3.5,0.4c1.1,0.2,2.1,0.5,2.9,0.9l-1.7,4.2c-1.4-0.7-3-1.1-4.7-1.1
	c-1.6,0-2.8,0.5-3.6,1.5c-0.9,1-1.3,2.5-1.3,4.4c0,1.9,0.4,3.3,1.2,4.2c0.8,1,1.9,1.5,3.3,1.5c0.8,0,1.5-0.1,2.2-0.2v-3.1h-3.5
	V-44.9z"/>
<path id="XMLID_71_" class="st0" d="M-0.1-53.1h6.9c2.7,0,4.7,0.4,6,1.2c1.3,0.8,2,2,2,3.7c0,1.1-0.3,2.1-0.9,2.9
	c-0.6,0.8-1.3,1.3-2.3,1.5v0.1c1.2,0.3,2.1,0.9,2.7,1.6c0.6,0.8,0.8,1.7,0.8,3c0,1.8-0.7,3.2-2,4.3c-1.4,1-3.2,1.6-5.5,1.6h-7.7
	V-53.1z M5.3-45.5h1.6c0.8,0,1.4-0.2,1.8-0.5c0.4-0.3,0.6-0.8,0.6-1.4c0-1.1-0.8-1.7-2.5-1.7H5.3V-45.5z M5.3-41.5v4.2h1.9
	c1.7,0,2.5-0.7,2.5-2.1c0-0.7-0.2-1.2-0.7-1.5c-0.4-0.4-1.1-0.5-1.9-0.5H5.3z"/>
<path id="XMLID_70_" class="st0" d="M26.6-44.9h8.6v10.7c-2.3,0.8-4.9,1.2-7.7,1.2c-3.1,0-5.4-0.9-7.1-2.7c-1.7-1.8-2.5-4.3-2.5-7.6
	c0-3.2,0.9-5.7,2.7-7.5c1.8-1.8,4.4-2.7,7.7-2.7c1.2,0,2.4,0.1,3.5,0.4c1.1,0.2,2.1,0.5,2.9,0.9l-1.7,4.2c-1.4-0.7-3-1.1-4.7-1.1
	c-1.6,0-2.8,0.5-3.6,1.5c-0.9,1-1.3,2.5-1.3,4.4c0,1.9,0.4,3.3,1.2,4.2c0.8,1,1.9,1.5,3.3,1.5c0.8,0,1.5-0.1,2.2-0.2v-3.1h-3.5
	V-44.9z"/>
<path id="XMLID_69_" class="st1" d="M-40.5-36.6L-40.5-36.6c0.8,0,1.6-0.3,2.3-0.9l2.9,2.9c2.8-2.8,2.8-7.4,0-10.3l-2.9,2.9
	c1.2,1.3,1.3,3.3,0,4.5C-38.9-36.9-39.7-36.6-40.5-36.6"/>
<g id="XMLID_62_">
	<defs>
		<path id="XMLID_63_" d="M-38.3-42.1c1.2,1.2,1.3,3.3,0,4.5c-0.6,0.6-1.4,0.9-2.3,0.9l0,4.1c1.9,0,3.7-0.7,5.1-2.1
			c2.8-2.8,2.8-7.4,0-10.3L-38.3-42.1z"/>
	</defs>
	<clipPath id="XMLID_38_">
		<use xlink:href="#XMLID_63_"  style="overflow:visible;"/>
	</clipPath>
	<g id="XMLID_64_" class="st2">
		<g id="XMLID_65_">
			<defs>
				<rect id="XMLID_66_" x="-38.9" y="-45.3" width="13.4" height="6.5"/>
			</defs>
			<clipPath id="XMLID_39_">
				<use xlink:href="#XMLID_66_"  style="overflow:visible;"/>
			</clipPath>
			<path id="XMLID_67_" class="st3" d="M-25.5-44.1l-3.9-1.3c-0.3,0.8-0.8,1.5-1.6,1.9c-1.6,0.8-3.5,0.2-4.3-1.4h0l-3.6,1.8
				c2.1,4.2,5.8,5.2,9.8,3.2C-27.3-40.8-26-42.3-25.5-44.1"/>
		</g>
	</g>
</g>
<g id="XMLID_42_">
	<path id="XMLID_61_" class="st4" d="M-28-52.3c-2.8-2.8-7.4-2.8-10.3,0l2.9,2.9c1.3-1.3,3.3-1.3,4.5,0c0.6,0.6,0.9,1.4,0.9,2.3h4.1
		C-25.8-49.1-26.5-50.9-28-52.3"/>
	<path id="XMLID_60_" class="st5" d="M-45.7-34.6c2.8,2.8,7.4,2.8,10.3,0l-2.9-2.9c-1.3,1.3-3.3,1.2-4.5,0c-0.6-0.6-0.9-1.4-0.9-2.3
		h-4.1C-47.8-37.9-47.1-36.1-45.7-34.6"/>
	<path id="XMLID_59_" class="st6" d="M-29.9-47.2c0,0.8-0.3,1.6-0.9,2.3c-1.3,1.2-3.3,1.2-4.5,0c-2.8-2.9-7.4-2.9-10.3,0
		c-1.4,1.4-2.1,3.3-2.2,5.1l4.1,0c0-0.8,0.3-1.6,0.9-2.3c1.3-1.2,3.3-1.2,4.5,0l0,0l0,0c2.8,2.9,7.4,2.9,10.3,0
		c1.4-1.4,2.1-3.3,2.2-5.1L-29.9-47.2z"/>
	<path id="XMLID_58_" class="st1" d="M-35.4-44.9L-35.4-44.9c-1.2-1.3-1.2-3.3,0-4.5l-2.9-2.9c-1.5,1.5-2.2,3.4-2.1,5.3
		C-38.6-47-36.8-46.3-35.4-44.9"/>
</g>
<rect x="44.3" y="-52.8" class="st7" width="122.2" height="26.6"/>
<text transform="matrix(1 0 0 1 44.2862 -34.5183)" class="st0 st8 st9">Tbilisi</text>
<rect x="17.9" y="-29.5" class="st7" width="78" height="23"/>
<text transform="matrix(1 0 0 1 17.9393 -11.2123)" class="st0 st8 st9">2016</text>
<path id="XMLID_18_" class="st0" d="M-12.7,16.3h8.6V27c-2.3,0.8-4.9,1.2-7.7,1.2c-3.1,0-5.4-0.9-7.1-2.7c-1.7-1.8-2.5-4.3-2.5-7.6
	c0-3.2,0.9-5.7,2.7-7.5c1.8-1.8,4.4-2.7,7.7-2.7c1.2,0,2.4,0.1,3.5,0.4C-6.3,8.3-5.3,8.6-4.5,9l-1.7,4.2c-1.4-0.7-3-1.1-4.7-1.1
	c-1.6,0-2.8,0.5-3.6,1.5c-0.9,1-1.3,2.5-1.3,4.4c0,1.9,0.4,3.3,1.2,4.2c0.8,1,1.9,1.5,3.3,1.5c0.8,0,1.5-0.1,2.2-0.2v-3.1h-3.5V16.3
	z"/>
<path id="XMLID_14_" class="st0" d="M-0.1,8h6.9c2.7,0,4.7,0.4,6,1.2c1.3,0.8,2,2,2,3.7c0,1.1-0.3,2.1-0.9,2.9
	c-0.6,0.8-1.3,1.3-2.3,1.5v0.1c1.2,0.3,2.1,0.9,2.7,1.6c0.6,0.8,0.8,1.7,0.8,3c0,1.8-0.7,3.2-2,4.3c-1.4,1-3.2,1.6-5.5,1.6h-7.7V8z
	 M5.3,15.7h1.6c0.8,0,1.4-0.2,1.8-0.5c0.4-0.3,0.6-0.8,0.6-1.4c0-1.1-0.8-1.7-2.5-1.7H5.3V15.7z M5.3,19.6v4.2h1.9
	c1.7,0,2.5-0.7,2.5-2.1c0-0.7-0.2-1.2-0.7-1.5c-0.4-0.4-1.1-0.5-1.9-0.5H5.3z"/>
<path id="XMLID_13_" class="st0" d="M26.6,16.3h8.6V27c-2.3,0.8-4.9,1.2-7.7,1.2c-3.1,0-5.4-0.9-7.1-2.7c-1.7-1.8-2.5-4.3-2.5-7.6
	c0-3.2,0.9-5.7,2.7-7.5c1.8-1.8,4.4-2.7,7.7-2.7c1.2,0,2.4,0.1,3.5,0.4C33,8.3,34,8.6,34.8,9l-1.7,4.2c-1.4-0.7-3-1.1-4.7-1.1
	c-1.6,0-2.8,0.5-3.6,1.5c-0.9,1-1.3,2.5-1.3,4.4c0,1.9,0.4,3.3,1.2,4.2c0.8,1,1.9,1.5,3.3,1.5c0.8,0,1.5-0.1,2.2-0.2v-3.1h-3.5V16.3
	z"/>
<path id="XMLID_12_" class="st10" d="M-40.5,24.5L-40.5,24.5c0.8,0,1.6-0.3,2.3-0.9l2.9,2.9c2.8-2.8,2.8-7.4,0-10.3l-2.9,2.9
	c1.2,1.3,1.3,3.3,0,4.5C-38.9,24.2-39.7,24.5-40.5,24.5"/>
<g id="XMLID_6_">
	<defs>
		<path id="XMLID_7_" d="M-38.3,19.1c1.2,1.2,1.3,3.3,0,4.5c-0.6,0.6-1.4,0.9-2.3,0.9l0,4.1c1.9,0,3.7-0.7,5.1-2.1
			c2.8-2.8,2.8-7.4,0-10.3L-38.3,19.1z"/>
	</defs>
	<clipPath id="XMLID_40_">
		<use xlink:href="#XMLID_7_"  style="overflow:visible;"/>
	</clipPath>
	<g id="XMLID_8_" class="st11">
		<g id="XMLID_9_">
			<defs>
				<rect id="XMLID_10_" x="-38.9" y="15.8" width="13.4" height="6.5"/>
			</defs>
			<clipPath id="XMLID_41_">
				<use xlink:href="#XMLID_10_"  style="overflow:visible;"/>
			</clipPath>
			<path id="XMLID_11_" class="st12" d="M-25.5,17l-3.9-1.3c-0.3,0.8-0.8,1.5-1.6,1.9c-1.6,0.8-3.5,0.2-4.3-1.4h0l-3.6,1.8
				c2.1,4.2,5.8,5.2,9.8,3.2C-27.3,20.4-26,18.8-25.5,17"/>
		</g>
	</g>
</g>
<g id="XMLID_1_">
	<path id="XMLID_5_" class="st13" d="M-28,8.8c-2.8-2.8-7.4-2.8-10.3,0l2.9,2.9c1.3-1.3,3.3-1.3,4.5,0c0.6,0.6,0.9,1.4,0.9,2.3h4.1
		C-25.8,12.1-26.5,10.2-28,8.8"/>
	<path id="XMLID_4_" class="st14" d="M-45.7,26.5c2.8,2.8,7.4,2.8,10.3,0l-2.9-2.9c-1.3,1.3-3.3,1.2-4.5,0c-0.6-0.6-0.9-1.4-0.9-2.3
		h-4.1C-47.8,23.2-47.1,25.1-45.7,26.5"/>
	<path id="XMLID_3_" class="st15" d="M-29.9,13.9c0,0.8-0.3,1.6-0.9,2.3c-1.3,1.2-3.3,1.2-4.5,0c-2.8-2.9-7.4-2.9-10.3,0
		c-1.4,1.4-2.1,3.3-2.2,5.1l4.1,0c0-0.8,0.3-1.6,0.9-2.3c1.3-1.2,3.3-1.2,4.5,0l0,0l0,0c2.8,2.9,7.4,2.9,10.3,0
		c1.4-1.4,2.1-3.3,2.2-5.1L-29.9,13.9z"/>
	<path id="XMLID_2_" class="st10" d="M-35.4,16.2L-35.4,16.2c-1.2-1.3-1.2-3.3,0-4.5l-2.9-2.9c-1.5,1.5-2.2,3.4-2.1,5.3
		C-38.6,14.1-36.8,14.8-35.4,16.2"/>
</g>
<rect x="44.3" y="8.4" class="st7" width="122.2" height="26.6"/>
<text transform="matrix(1 0 0 1 44.2862 26.6019)" class="st0 st8 st9">Tbilisi</text>
<rect x="17.9" y="31.7" class="st7" width="78" height="23"/>
<text transform="matrix(1 0 0 1 17.9393 49.9079)" class="st0 st8 st9">2016</text>
<path id="XMLID_36_" class="st16" d="M-12.7,80.5h8.6v10.7c-2.3,0.8-4.9,1.2-7.7,1.2c-3.1,0-5.4-0.9-7.1-2.7
	c-1.7-1.8-2.5-4.3-2.5-7.6c0-3.2,0.9-5.7,2.7-7.5c1.8-1.8,4.4-2.7,7.7-2.7c1.2,0,2.4,0.1,3.5,0.4c1.1,0.2,2.1,0.5,2.9,0.9l-1.7,4.2
	c-1.4-0.7-3-1.1-4.7-1.1c-1.6,0-2.8,0.5-3.6,1.5c-0.9,1-1.3,2.5-1.3,4.4c0,1.9,0.4,3.3,1.2,4.2c0.8,1,1.9,1.5,3.3,1.5
	c0.8,0,1.5-0.1,2.2-0.2v-3.1h-3.5V80.5z"/>
<path id="XMLID_32_" class="st16" d="M-0.1,72.3h6.9c2.7,0,4.7,0.4,6,1.2c1.3,0.8,2,2,2,3.7c0,1.1-0.3,2.1-0.9,2.9
	c-0.6,0.8-1.3,1.3-2.3,1.5v0.1c1.2,0.3,2.1,0.9,2.7,1.6c0.6,0.8,0.8,1.7,0.8,3c0,1.8-0.7,3.2-2,4.3c-1.4,1-3.2,1.6-5.5,1.6h-7.7
	V72.3z M5.3,79.9h1.6c0.8,0,1.4-0.2,1.8-0.5c0.4-0.3,0.6-0.8,0.6-1.4c0-1.1-0.8-1.7-2.5-1.7H5.3V79.9z M5.3,83.8V88h1.9
	c1.7,0,2.5-0.7,2.5-2.1c0-0.7-0.2-1.2-0.7-1.5c-0.4-0.4-1.1-0.5-1.9-0.5H5.3z"/>
<path id="XMLID_31_" class="st16" d="M26.6,80.5h8.6v10.7c-2.3,0.8-4.9,1.2-7.7,1.2c-3.1,0-5.4-0.9-7.1-2.7
	c-1.7-1.8-2.5-4.3-2.5-7.6c0-3.2,0.9-5.7,2.7-7.5c1.8-1.8,4.4-2.7,7.7-2.7c1.2,0,2.4,0.1,3.5,0.4c1.1,0.2,2.1,0.5,2.9,0.9l-1.7,4.2
	c-1.4-0.7-3-1.1-4.7-1.1c-1.6,0-2.8,0.5-3.6,1.5c-0.9,1-1.3,2.5-1.3,4.4c0,1.9,0.4,3.3,1.2,4.2c0.8,1,1.9,1.5,3.3,1.5
	c0.8,0,1.5-0.1,2.2-0.2v-3.1h-3.5V80.5z"/>
<path id="XMLID_30_" class="st1" d="M-40.5,88.8L-40.5,88.8c0.8,0,1.6-0.3,2.3-0.9l2.9,2.9c2.8-2.8,2.8-7.4,0-10.3l-2.9,2.9
	c1.2,1.3,1.3,3.3,0,4.5C-38.9,88.4-39.7,88.8-40.5,88.8"/>
<g id="XMLID_24_">
	<defs>
		<path id="XMLID_25_" d="M-38.3,83.3c1.2,1.2,1.3,3.3,0,4.5c-0.6,0.6-1.4,0.9-2.3,0.9l0,4.1c1.9,0,3.7-0.7,5.1-2.1
			c2.8-2.8,2.8-7.4,0-10.3L-38.3,83.3z"/>
	</defs>
	<clipPath id="XMLID_43_">
		<use xlink:href="#XMLID_25_"  style="overflow:visible;"/>
	</clipPath>
	<g id="XMLID_26_" class="st17">
		<g id="XMLID_27_">
			<defs>
				<rect id="XMLID_28_" x="-38.9" y="80" width="13.4" height="6.5"/>
			</defs>
			<clipPath id="XMLID_44_">
				<use xlink:href="#XMLID_28_"  style="overflow:visible;"/>
			</clipPath>
			<path id="XMLID_29_" class="st18" d="M-25.5,81.3l-3.9-1.3c-0.3,0.8-0.8,1.5-1.6,1.9c-1.6,0.8-3.5,0.2-4.3-1.4h0l-3.6,1.8
				c2.1,4.2,5.8,5.2,9.8,3.2C-27.3,84.6-26,83-25.5,81.3"/>
		</g>
	</g>
</g>
<g id="XMLID_19_">
	<path id="XMLID_23_" class="st4" d="M-28,73c-2.8-2.8-7.4-2.8-10.3,0l2.9,2.9c1.3-1.3,3.3-1.3,4.5,0c0.6,0.6,0.9,1.4,0.9,2.3h4.1
		C-25.8,76.3-26.5,74.4-28,73"/>
	<path id="XMLID_22_" class="st5" d="M-45.7,90.7c2.8,2.8,7.4,2.8,10.3,0l-2.9-2.9c-1.3,1.3-3.3,1.2-4.5,0c-0.6-0.6-0.9-1.4-0.9-2.3
		h-4.1C-47.8,87.4-47.1,89.3-45.7,90.7"/>
	<path id="XMLID_21_" class="st6" d="M-29.9,78.2c0,0.8-0.3,1.6-0.9,2.3c-1.3,1.2-3.3,1.2-4.5,0c-2.8-2.9-7.4-2.9-10.3,0
		c-1.4,1.4-2.1,3.3-2.2,5.1l4.1,0c0-0.8,0.3-1.6,0.9-2.3c1.3-1.2,3.3-1.2,4.5,0l0,0l0,0c2.8,2.9,7.4,2.9,10.3,0
		c1.4-1.4,2.1-3.3,2.2-5.1L-29.9,78.2z"/>
	<path id="XMLID_20_" class="st1" d="M-35.4,80.4L-35.4,80.4c-1.2-1.3-1.2-3.3,0-4.5l-2.9-2.9c-1.5,1.5-2.2,3.4-2.1,5.3
		C-38.6,78.3-36.8,79-35.4,80.4"/>
</g>
<rect x="44.3" y="72.6" class="st7" width="122.2" height="26.6"/>
<text transform="matrix(1 0 0 1 44.2862 90.8355)" class="st16 st8 st9">Tbilisi</text>
<rect x="17.9" y="95.9" class="st7" width="78" height="23"/>
<text transform="matrix(1 0 0 1 17.9393 114.1415)" class="st16 st8 st9">2016</text>
</svg>
